# xmcd
#
# Track frame offsets: 
#        150
#        19833
#        33409
#        47002
#        60970
#        72704
#        86948
#        100050
#        110009
#        122380
#        132514
#        148186
#        162602
#        174528
#        191785
#        209973
#        225089
#        238914
#        250147
#        262767
#
# Disc length: 3713 seconds
#
# Revision: 3
# Processed by: cddbd v1.5.1PL2 Copyright (c) Steve Scherf et al.
# Submitted via: ExactAudioCopy v0.90b4
#
DISCID=290e7f14
DTITLE=The Statler Brothers - A 30th Anniversary Celebration - Disc 3
DYEAR=1900
DGENRE=Country
TTITLE0=Maple Street Memories
TTITLE1=The Best I Know How
TTITLE2=More Than A Name On A Wall
TTITLE3=Let's Get Started If We're Gonna Break My Heart
TTITLE4=Moon Pretty Moon
TTITLE5=Walking Heartache In Disguise (Live Version)
TTITLE6=Tomorrow Never Comes (Live Version)
TTITLE7=This Ole House (Live Version)
TTITLE8=Nobody Else
TTITLE9=Jealous Eyes
TTITLE10=Small, Small World
TTITLE11=You've Been Like A Mother To Me
TTITLE12=Fallin' In Love
TTITLE13=He's Always There For You
TTITLE14=Is It Your Place Or Mine
TTITLE15=It Only Hurts For Alittle While
TTITLE16=How Great Thou Art
TTITLE17=Chattanoogie Shoe Shine Boy
TTITLE18=Feeling Mighty Fine
TTITLE19=What We Love To Do
EXTD=
EXTT0=
EXTT1=
EXTT2=
EXTT3=
EXTT4=
EXTT5=Live Version
EXTT6=Live Version
EXTT7=Live Version
EXTT8=
EXTT9=
EXTT10=
EXTT11=
EXTT12=
EXTT13=
EXTT14=
EXTT15=
EXTT16=
EXTT17=
EXTT18=
EXTT19=
PLAYORDER=
